 <svg id="logo" xmlns="http://www.w3.org/2000/svg" viewBox="0 0 659.2 331.07">

  <g id="logo-national">
    <path d="M347.56,85.95c8.02,0,14.99-2.83,20.72-8.42,6.08-5.92,9.8-17.81,9.8-30.28s-3.72-23.92-9.8-29.85c-5.97-5.81-12.4-8.4-20.72-8.4s-14.86,2.59-20.83,8.4c-6.08,5.93-9.8,17.64-9.8,29.85s3.72,24.36,9.8,30.28c5.73,5.59,12.81,8.42,20.83,8.42m-.12,8.64c-16.11,0-29.48-6.81-38.15-19.16-5.36-7.63-8.43-17.88-8.43-28.12s3.15-20.28,8.43-27.8C317.96,7.15,331.2,.35,347.3,.35s29.75,6.8,38.41,19.16c5.28,7.52,8.43,17.91,8.43,27.8s-3.07,20.49-8.43,28.12c-8.67,12.35-22.17,19.16-38.27,19.16m-273.52,.14L14.96,20.12l.04,57.73c0,7.68,.94,10.62,2.26,13.94,.17,.43,.67,1.69,.67,1.69H.47s.49-1.26,.65-1.68c1.22-3.16,2.23-6.39,2.23-13.96V16.99c-.01-8.6-1.34-11.52-2.44-13.88-.22-.45-.92-1.79-.92-1.79H20.41l45.2,59.39,.15-43.66c0-7.84-1.18-10.78-2.42-13.9-.17-.43-.67-1.71-.67-1.71h18.2s-.63,1.31-.84,1.75c-1.43,3-2.38,6.1-2.38,13.88h0V94.73h-3.74Zm410.28,0l-58.96-74.61,.04,57.73c0,7.68,.94,10.62,2.26,13.94,.17,.43,.67,1.69,.67,1.69h-17.46s.49-1.26,.65-1.68c1.22-3.16,2.23-6.39,2.23-13.96l-.02-60.85c0-8.6-1.33-11.52-2.42-13.88-.22-.45-.92-1.79-.92-1.79h20.41l45.2,59.39,.15-43.66c0-7.84-1.18-10.78-2.42-13.9-.17-.43-.67-1.71-.67-1.71h18.2s-.63,1.31-.84,1.75c-1.43,3-2.38,6.1-2.38,13.88h0V94.73h-3.74Zm-204-16.89c0,7.78,.76,10.74,2.18,13.74,.21,.44,.86,1.76,.86,1.76h-21.94s.65-1.32,.86-1.76c1.43-3,2.17-5.96,2.17-13.73l-.02-60.71c0-7.78-.75-10.88-2.17-13.88-.21-.44-.86-1.76-.86-1.76h21.94s-.65,1.32-.86,1.76c-1.42,3-2.17,6.09-2.17,13.87l.02,60.71ZM244.32,1.5l1.23,12.26s-1.23-.79-2.3-1.34c-2.97-1.51-5.18-2.04-12.27-2.04h-13.42s0,67.35,0,67.35c0,7.77,.75,10.87,2.18,13.87,.21,.44,.86,1.76,.86,1.76h-21.94s.64-1.32,.86-1.76c1.43-3,2.17-5.96,2.17-13.73V10.39h-13.41c-7.09,0-9.29,.53-12.26,2.03-1.07,.54-2.3,1.34-2.3,1.34l1.23-12.26h69.36Zm-74.34,80.62L136.82,.54h-5.8l-33.42,82.84c-1.19,2.95-2.5,5.33-4.58,7.88-.44,.54-1.93,2.12-1.93,2.12h19.28s-.72-1.12-1.03-1.92c-.58-1.51-.96-3.78,.31-7.32l6.01-15.4h32.34l5.4,13.42c1.65,4.21,1.7,6.72,.49,9.4-.21,.47-.92,1.85-.92,1.85h24.72s-1.48-1.48-1.97-2.02c-1.5-1.63-3.73-4.5-5.73-9.27Zm-50.88-22.25l12.74-33.39,12.73,33.39h-25.47Zm460.75,22.25L546.7,.54h-5.8l-33.42,82.84c-1.19,2.95-2.5,5.33-4.58,7.88-.44,.54-1.93,2.12-1.93,2.12h19.28s-.72-1.12-1.03-1.92c-.58-1.51-.96-3.78,.3-7.32l6.01-15.4h32.34l5.4,13.42c1.65,4.21,1.7,6.72,.49,9.4-.21,.47-.92,1.85-.92,1.85h24.72s-1.48-1.48-1.97-2.02c-1.5-1.63-3.73-4.5-5.73-9.27Zm-50.88-22.25l12.74-33.39,12.73,33.39h-25.47Zm90.62-42.75V84.57l18.66-.03c5.88-.17,11.46-.64,16.19-2.45,2.67-1.02,4.68-2.16,4.68-2.16l-3.12,13.49-55.43,.02,.67-1.69c1.26-3.15,2.43-6.1,2.43-13.94l.02-60.64c0-7.77-.75-10.99-2.18-13.99-.21-.44-.86-1.76-.86-1.76h21.94s-.65,1.32-.86,1.76c-1.42,3-2.15,6.15-2.15,13.93"/>
  </g>
    <g id="logo-sm">
    <path d="M137.37,204.82c8.02,0,14.99-2.83,20.72-8.41,6.08-5.92,9.8-17.81,9.8-30.28s-3.72-23.92-9.8-29.85c-5.97-5.81-12.4-8.4-20.72-8.4s-14.86,2.59-20.83,8.4c-6.08,5.93-9.8,17.64-9.8,29.85s3.72,24.36,9.8,30.28c5.73,5.59,12.81,8.42,20.83,8.42m-.12,8.64c-16.11,0-29.48-6.81-38.15-19.16-5.36-7.63-8.43-17.88-8.43-28.12s3.15-20.28,8.43-27.8c8.67-12.36,21.9-19.16,38.01-19.16s29.75,6.8,38.41,19.16c5.28,7.52,8.43,17.91,8.43,27.8s-3.07,20.49-8.43,28.12c-8.67,12.35-22.17,19.16-38.27,19.16m412.16-16.83c0,7.78,.76,10.74,2.18,13.74,.21,.44,.86,1.76,.86,1.76h-21.94s.65-1.32,.86-1.76c1.43-3,2.17-5.96,2.17-13.73l-.02-60.71c0-7.78-.75-10.88-2.17-13.88-.21-.44-.86-1.76-.86-1.76h21.94s-.65,1.32-.86,1.76c-1.42,3-2.17,6.09-2.17,13.87l.02,60.71Zm-38,4.19l-33.15-81.58h-5.8l-33.42,82.84c-1.19,2.95-2.5,5.33-4.58,7.88-.44,.54-1.93,2.12-1.93,2.12h19.28s-.72-1.12-1.03-1.92c-.58-1.51-.96-3.78,.3-7.32l6.01-15.4h32.33l5.4,13.42c1.65,4.21,1.7,6.73,.49,9.4-.21,.47-.92,1.85-.92,1.85h24.72s-1.48-1.48-1.97-2.02c-1.5-1.63-3.73-4.5-5.73-9.27Zm-50.88-22.25l12.74-33.39,12.73,33.39h-25.47Zm-241.53,140.86l-33.15-81.58h-5.8l-33.42,82.84c-1.19,2.95-2.5,5.33-4.58,7.88-.44,.54-1.93,2.12-1.93,2.12h19.28s-.72-1.12-1.03-1.92c-.58-1.52-.96-3.78,.3-7.32l6.01-15.4h32.33l5.4,13.42c1.65,4.21,1.7,6.73,.49,9.4-.21,.47-.92,1.85-.92,1.85h24.72s-1.48-1.48-1.97-2.02c-1.5-1.63-3.74-4.5-5.73-9.27Zm-50.88-22.25l12.74-33.39,12.73,33.39h-25.47Zm89.68-42.66v67.46l18.66-.03c5.88-.17,11.46-.64,16.19-2.45,2.67-1.02,4.68-2.16,4.68-2.16l-3.12,13.49-55.43,.02,.67-1.69c1.26-3.15,2.43-5.77,2.43-13.94l.02-60.64c0-7.77-.75-10.99-2.18-13.99-.21-.45-.86-1.76-.86-1.76h21.94s-.65,1.32-.86,1.76c-1.43,3-2.15,6.15-2.15,13.93m67.24,0v67.46l18.66-.03c5.88-.17,11.46-.64,16.19-2.45,2.67-1.02,4.68-2.16,4.68-2.16l-3.12,13.49-55.43,.02,.67-1.69c1.26-3.15,2.43-5.77,2.43-13.94l.02-60.64c0-7.77-.75-10.99-2.18-13.99-.21-.45-.86-1.76-.86-1.76h21.94s-.65,1.32-.86,1.76c-1.43,3-2.15,6.15-2.15,13.93M58.94,161.67c-3.37,2.57-7.4,3.51-15.21,3.51h-7.38v-36.51h7.37c7.81,0,11.93,.93,15.3,3.51,5.19,3.97,6.56,9.9,6.56,14.88,0,4.37-1.39,10.6-6.64,14.62Zm15.01-32.97c-7-6.64-16.28-8.66-29.4-8.66H17.62s.7,1.69,.7,1.69c1.39,3.37,2.12,7.55,2.12,12.09v64.22c0,4.48-.74,8.72-2.14,12.27l-.66,1.68h21.31l-.65-1.68c-1.3-3.32-1.96-7.45-1.96-12.27v-24.37h8.12c13.7,0,22.4-2.02,29.4-8.66,3.6-3.41,6.98-9.75,6.98-18.15s-3.31-14.75-6.91-18.16m350.3,81.21c-1.41-1.54-3.08-4.12-5.64-8.9-3.1-5.8-5.6-11.9-8.51-18.57-1.35-3.09-3.61-8.86-5.07-12.34,3.61-1.34,6.53-3.23,9.32-5.87,3.6-3.42,6.86-9.07,6.86-17.47s-3.55-14.39-6.91-18.04c-6.59-7.16-17.14-8.66-30.27-8.66h-26.79s-.13-.07-.13-.07l.02,.06h0s.67,1.64,.67,1.64c1.39,3.37,2.12,7.55,2.12,12.09v64.26c0,4.48-.74,8.72-2.13,12.27l-.66,1.68h21.31l-.66-1.68c-1.3-3.32-1.96-7.45-1.96-12.27v-25.28h8.13c1.64,0,4.46-.03,5.98-.11,1.49,3.37,4.33,10.86,6.8,16.9,3.74,9.18,9.48,22.49,9.48,22.49h20.36c-1.46-1.21-1.46-1.18-2.34-2.14Zm-24.83-49.29c-3.95,2.76-7.92,3.64-16.2,3.64h-7.38v-35.58h7.37c7.81,0,12.8,1.3,16.17,3.88,5.53,4.22,6.56,9.81,6.56,14.38,0,4.36-1.3,10.02-6.52,13.68Zm118.03,168.06c-1.41-1.54-3.08-4.12-5.64-8.9-3.1-5.8-5.6-11.9-8.51-18.57-1.35-3.09-3.61-8.86-5.07-12.34,3.61-1.34,6.53-3.23,9.32-5.87,3.6-3.42,6.86-9.07,6.86-17.47s-3.55-14.39-6.91-18.04c-6.59-7.16-17.14-8.66-30.27-8.66h-26.79s-.13-.07-.13-.07l.02,.06h0s.67,1.64,.67,1.64c1.39,3.37,2.12,7.55,2.12,12.09v64.26c0,4.48-.74,8.72-2.13,12.27l-.66,1.68h21.31l-.66-1.68c-1.3-3.32-1.96-7.45-1.96-12.27v-25.28h8.13c1.64,0,4.46-.03,5.98-.11,1.49,3.37,4.33,10.86,6.8,16.9,3.74,9.18,9.48,22.49,9.48,22.49h20.36c-1.46-1.21-1.46-1.19-2.34-2.14Zm-24.83-49.29c-3.95,2.76-7.92,3.64-16.2,3.64h-7.38v-35.58h7.37c7.81,0,12.8,1.3,16.17,3.88,5.53,4.22,6.56,9.81,6.56,14.38,0,4.36-1.3,10.03-6.52,13.68Zm-226.86-69.49c-1.41-1.54-3.08-4.12-5.64-8.9-3.1-5.8-5.6-11.9-8.51-18.57-1.35-3.09-3.62-8.86-5.07-12.34,3.61-1.34,6.53-3.23,9.32-5.87,3.6-3.42,6.86-9.07,6.86-17.47s-3.55-14.39-6.91-18.04c-6.59-7.16-17.14-8.66-30.27-8.66h-26.79s-.13-.07-.13-.07l.02,.06h0s.67,1.64,.67,1.64c1.39,3.37,2.12,7.55,2.12,12.09v64.26c0,4.48-.74,8.72-2.13,12.27l-.66,1.68h21.31l-.66-1.68c-1.3-3.32-1.96-7.45-1.96-12.27v-25.28h8.13c1.64,0,4.46-.03,5.98-.11,1.49,3.37,4.34,10.86,6.79,16.9,3.74,9.18,9.48,22.49,9.48,22.49h20.36c-1.47-1.21-1.46-1.18-2.34-2.14Zm-24.83-49.29c-3.95,2.76-7.91,3.64-16.2,3.64h-7.38v-35.58h7.37c7.81,0,12.8,1.3,16.17,3.88,5.53,4.22,6.56,9.81,6.56,14.38,0,4.36-1.3,10.02-6.52,13.68ZM97.48,332.01c-15.26,0-27.32-5.38-36.44-15.27-7.46-8.08-11.87-19.16-12.05-31.58-.19-12.78,4.63-25.3,12.9-33.49,9.48-9.4,21.45-14.17,35.59-14.17,11.28,0,23.27,2.7,30.55,7.85l1.21,12.87s-3.39-2.69-5.62-4.18c-7.51-5.01-14.54-8.09-25.5-8.09-9.88,0-18.42,4.09-24.35,11.21-5.18,6.21-8.15,16.42-8.15,27.99,0,10.22,2.74,19.96,7.51,26.71,5.1,7.22,14.43,11.71,24.34,11.71,5.75,0,12.66-1.76,16.15-4.06l.12-22.76c0-7.06-1.45-10.65-2.31-12.43l-.87-1.78h18.52v26.59c0,5.61,1.16,8.48,2.25,10.22,.17,.27,.73,1.08,.73,1.08l-1.04,.86c-7.64,6.11-21.71,10.72-33.55,10.72m276.8-1.23l.67-1.67c1.26-3.11,2.43-6.03,2.43-13.78l.02-60.93c0-7.69-.75-10.86-2.17-13.82-.21-.44-.86-1.75-.86-1.75l53.71,.12,1.23,12.11s-1.23-.78-2.3-1.31c-2.97-1.49-5.8-2.02-12.89-2.02h-20.83v31.51h12.42c6.77,0,9.85-.68,12.49-2.01,1.07-.54,2.3-1.32,2.3-1.32v15.35s-1.23-.79-2.3-1.32c-2.64-1.32-5.72-2.01-12.49-2.01h-12.42s0,34.08,0,34.08l18.66-.03c5.88-.17,11.46-.64,16.19-2.45,2.67-1.02,4.68-2.16,4.68-2.16l-3.12,13.49-55.43-.06Zm192.13-40.54l.04,25.25c0,7.69,.75,10.61,2.17,13.58,.21,.43,.86,1.74,.86,1.74h-21.94s.65-1.31,.86-1.74c1.42-2.96,2.16-5.89,2.16-13.57l-.08-25.26c-1.7-3.07-21.87-40.6-21.87-40.6-2.8-4.89-5.49-7.42-6.48-8.35-.64-.6-2.61-2.25-2.61-2.25h24.79s-.8,1.06-1.04,1.69c-.39,1.04-1.05,3.49,1.62,8.85l15.84,28.22,15.49-28.19c2.67-5.37,2.01-7.81,1.62-8.85-.24-.63-1.04-1.7-1.04-1.7h20.39s-1.98,1.65-2.62,2.25c-.99,.93-3.68,3.46-6.47,8.35l-21.7,40.59Zm71.57-170.04l1.22,12.26s-1.22-.79-2.3-1.34c-2.97-1.51-5.18-2.04-12.27-2.04h-13.42s0,67.35,0,67.35c0,7.77,.75,10.87,2.17,13.87,.21,.45,.86,1.76,.86,1.76h-21.94s.64-1.32,.86-1.76c1.43-3,2.17-5.96,2.17-13.73v-67.48h-13.41c-7.09,0-9.29,.53-12.26,2.03-1.07,.54-2.3,1.34-2.3,1.34l1.23-12.26h69.36Zm-295.76,0l1.23,12.26s-1.23-.79-2.3-1.34c-2.97-1.51-5.18-2.04-12.27-2.04h-13.42s0,67.35,0,67.35c0,7.77,.75,10.87,2.17,13.87,.21,.45,.86,1.76,.86,1.76h-21.94s.64-1.32,.86-1.76c1.43-3,2.17-5.96,2.17-13.73v-67.48h-13.41c-7.09,0-9.29,.53-12.26,2.03-1.07,.54-2.3,1.34-2.3,1.34l1.23-12.26h69.36Z"/>
  </g>

</svg>